<svg width="200" height="200" viewBox="0 0 200 200" fill="none" xmlns="http://www.w3.org/2000/svg">
<g clip-path="url(#clip0_965_2)">
<path d="M30 15C26.0217 15 22.2064 16.5803 19.3934 19.3934C16.5803 22.2064 15 26.0217 15 30V60C15 63.9782 16.5803 67.7935 19.3934 70.6066C22.2064 73.4196 26.0217 75 30 75H60C61.9698 75 63.9203 74.612 65.7402 73.8582C67.5601 73.1043 69.2137 71.9994 70.6066 70.6066C71.9994 69.2137 73.1043 67.5601 73.8582 65.7402C74.612 63.9203 75 61.9698 75 60V30C75 26.0217 73.4196 22.2064 70.6066 19.3934C67.7935 16.5803 63.9782 15 60 15H30ZM30 0H60C63.9396 -2.56488e-08 67.8407 0.775972 71.4805 2.28361C75.1202 3.79125 78.4274 6.00104 81.2132 8.78679C83.9989 11.5725 86.2087 14.8797 87.7163 18.5195C89.224 22.1593 90 26.0603 90 30V60C90 63.9396 89.224 67.8407 87.7163 71.4805C86.2087 75.1202 83.9989 78.4274 81.2132 81.2132C78.4274 83.9989 75.1202 86.2087 71.4805 87.7163C67.8407 89.224 63.9396 90 60 90H30C26.0603 90 22.1593 89.224 18.5195 87.7163C14.8797 86.2087 11.5725 83.9989 8.78679 81.2132C6.00104 78.4274 3.79125 75.1202 2.28361 71.4805C0.775972 67.8407 -2.56488e-08 63.9396 0 60L0 30C0 22.0435 3.1607 14.4129 8.78679 8.78679C14.4129 3.1607 22.0435 0 30 0Z" fill="#BD4BE6"/>
<path d="M30 125C26.0217 125 22.2064 126.58 19.3934 129.393C16.5803 132.206 15 136.022 15 140V170C15 173.978 16.5803 177.794 19.3934 180.607C22.2064 183.42 26.0217 185 30 185H60C63.9782 185 67.7935 183.42 70.6066 180.607C73.4196 177.794 75 173.978 75 170V140C75 138.03 74.612 136.08 73.8582 134.26C73.1043 132.44 71.9994 130.786 70.6066 129.393C69.2137 128.001 67.5601 126.896 65.7402 126.142C63.9203 125.388 61.9698 125 60 125H30ZM30 110H60C63.9396 110 67.8407 110.776 71.4805 112.284C75.1202 113.791 78.4274 116.001 81.2132 118.787C83.9989 121.573 86.2087 124.88 87.7163 128.519C89.224 132.159 90 136.06 90 140V170C90 173.94 89.224 177.841 87.7163 181.48C86.2087 185.12 83.9989 188.427 81.2132 191.213C78.4274 193.999 75.1202 196.209 71.4805 197.716C67.8407 199.224 63.9396 200 60 200H30C22.0435 200 14.4129 196.839 8.78679 191.213C3.1607 185.587 0 177.956 0 170L0 140C-2.56488e-08 136.06 0.775972 132.159 2.28361 128.519C3.79125 124.88 6.00104 121.573 8.78679 118.787C11.5725 116.001 14.8797 113.791 18.5195 112.284C22.1593 110.776 26.0603 110 30 110Z" fill="#BD4BE6"/>
<path d="M140 125C136.022 125 132.206 126.58 129.393 129.393C126.58 132.206 125 136.022 125 140V170C125 173.978 126.58 177.794 129.393 180.607C132.206 183.42 136.022 185 140 185H170C173.978 185 177.794 183.42 180.607 180.607C183.42 177.794 185 173.978 185 170V140C185 136.022 183.42 132.206 180.607 129.393C177.794 126.58 173.978 125 170 125H140ZM140 110H170C173.94 110 177.841 110.776 181.48 112.284C185.12 113.791 188.427 116.001 191.213 118.787C193.999 121.573 196.209 124.88 197.716 128.519C199.224 132.159 200 136.06 200 140V170C200 177.956 196.839 185.587 191.213 191.213C185.587 196.839 177.956 200 170 200H140C136.06 200 132.159 199.224 128.519 197.716C124.88 196.209 121.573 193.999 118.787 191.213C116.001 188.427 113.791 185.12 112.284 181.48C110.776 177.841 110 173.94 110 170V140C110 136.06 110.776 132.159 112.284 128.519C113.791 124.88 116.001 121.573 118.787 118.787C121.573 116.001 124.88 113.791 128.519 112.284C132.159 110.776 136.06 110 140 110Z" fill="#BD4BE6"/>
<path d="M155 15.0001C149.067 15.0001 143.266 16.7596 138.333 20.056C133.4 23.3525 129.554 28.0378 127.284 33.5196C125.013 39.0014 124.419 45.0334 125.577 50.8528C126.734 56.6722 129.591 62.0177 133.787 66.2133C137.982 70.4089 143.328 73.2661 149.147 74.4236C154.967 75.5812 160.999 74.9871 166.481 72.7165C171.962 70.4458 176.648 66.6007 179.944 61.6672C183.241 56.7337 185 50.9335 185 45.0001C185 37.0436 181.839 29.413 176.213 23.7869C170.587 18.1608 162.957 15.0001 155 15.0001ZM155 0.000111618C163.9 0.000111618 172.601 2.63931 180.001 7.58398C187.401 12.5286 193.169 19.5567 196.575 27.7793C199.981 36.002 200.872 45.05 199.135 53.7791C197.399 62.5083 193.113 70.5265 186.82 76.8199C180.527 83.1132 172.508 87.3991 163.779 89.1354C155.05 90.8717 146.002 89.9806 137.779 86.5746C129.557 83.1687 122.529 77.4009 117.584 70.0007C112.639 62.6005 110 53.9002 110 45.0001C109.987 39.0869 111.142 33.2294 113.399 27.7638C115.655 22.2982 118.97 17.3322 123.151 13.1509C127.332 8.96964 132.298 5.65547 137.764 3.39868C143.229 1.14189 149.087 -0.0130728 155 0.000111618Z" fill="#E02E3D"/>
</g>
<defs>
<clipPath id="clip0_965_2">
<rect width="200" height="200" fill="white"/>
</clipPath>
</defs>
</svg>
